<?xml version="1.0" standalone="no"?><!DOCTYPE svg PUBLIC "-//W3C//DTD SVG 1.1//EN" "http://www.w3.org/Graphics/SVG/1.1/DTD/svg11.dtd"><svg t="1625648061418" class="icon" viewBox="0 0 1024 1024" version="1.1" xmlns="http://www.w3.org/2000/svg" p-id="2102" xmlns:xlink="http://www.w3.org/1999/xlink" width="200" height="200"><defs><style type="text/css"></style></defs><path d="M620.032 672.256c28.672-40.96 52.992-89.856 73.472-139.008-12.288-8.192-16.384-20.48-20.48-32.768-93.952-4.096-179.712-20.48-249.088-40.96v4.096c40.96 65.792 102.144 143.36 196.096 208.64zM338.176 374.016c-32.768-81.664-40.96-155.136-45.056-204.288-48.896 28.672-89.6 69.632-122.368 114.432 32.768 24.576 89.856 61.184 159.232 93.952 4.096 0 4.096-4.096 8.192-4.096z m36.864-16.384c32.768 0 61.184 28.672 61.184 61.184 69.376 20.48 151.04 36.864 245.248 40.96 12.288-20.48 28.672-32.768 52.992-32.768 20.48-65.28 36.864-134.912 49.152-216.576-73.472-65.28-167.424-106.24-273.664-106.24-65.28 0-122.624 16.384-175.616 40.96-4.352 40.96 3.84 122.624 40.704 212.48zM787.712 455.68c40.96-4.096 81.664-8.192 126.72-16.384-12.288-73.472-45.056-139.008-89.856-192-12.288 69.376-28.672 134.912-45.056 192 0 4.352 4.096 12.544 8.192 16.384z m130.56 24.576c-40.96 8.192-81.664 12.288-122.624 16.384-4.096 28.672-28.672 52.992-61.184 52.992-24.576 52.992-52.992 106.24-81.664 147.2 45.056 32.768 102.144 61.184 163.328 85.76 61.184-69.376 102.144-167.424 102.144-269.568v-32.768z m-322.56 224.768c-98.048-69.376-163.328-151.04-208.384-224.768h-12.288c-32.768 0-61.184-28.672-61.184-61.184v-4.096c-73.472-32.768-130.816-69.376-163.328-98.048-28.672 61.184-49.152 126.72-49.152 196.096 0 187.904 126.72 343.296 298.24 392.192 65.28-45.056 134.656-110.336 196.096-200.192z m-143.104 212.48c20.48 4.096 36.864 4.096 57.088 4.096 106.24 0 200.192-40.96 273.664-106.24-57.088-24.576-110.336-52.992-155.136-85.76-52.992 77.568-118.528 138.752-175.616 187.904z" fill="#13227a" p-id="2103"></path></svg>